<?xml version="1.0" encoding="UTF-8"?><svg xmlns="http://www.w3.org/2000/svg" version="1.2" width="394.000000pt" height="399.000000pt" viewBox="0 0 394.000000 399.000000" preserveAspectRatio="xMidYMid meet" baseProfile="tiny-ps"><title>Borgeson</title><g transform="translate(0.000000,399.000000) scale(0.100000,-0.100000)" fill="#000000" stroke="none"><path d="M0 3936 c0 -50 2 -57 15 -46 12 10 17 7 26 -14 12 -25 36 -38 26 -13 -3 6 -8 19 -12 29 -4 11 -1 17 10 20 12 2 6 12 -24 43 l-41 39 0 -58z"></path><path d="M1828 3676 c-60 -23 -130 -57 -158 -74 l-50 -31 0 34 c0 41 -17 46 -46 14 -46 -52 -96 -79 -146 -79 -27 0 -62 -7 -77 -14 -33 -18 -86 -76 -96 -105 -7 -23 -11 -24 -106 -21 l-65 2 -95 -85 c-171 -154 -236 -226 -259 -289 -18 -49 -40 -76 -150 -186 -108 -107 -134 -139 -164 -201 -38 -79 -64 -185 -94 -373 l-18 -117 38 -76 c47 -92 94 -231 104 -303 6 -49 5 -54 -16 -59 -21 -5 -22 -10 -18 -72 4 -56 18 -96 96 -274 51 -114 104 -244 119 -288 20 -58 34 -84 50 -92 22 -10 53 -62 53 -91 0 -35 45 -131 78 -168 52 -58 98 -78 179 -78 51 0 79 -5 108 -22 128 -69 150 -78 188 -78 41 0 150 -49 280 -127 47 -28 60 -33 72 -23 13 11 15 8 15 -17 l0 -30 63 10 c105 16 344 13 409 -5 31 -9 59 -13 62 -11 15 16 101 1 160 -27 66 -31 86 -32 86 -4 0 18 49 40 111 49 44 7 48 5 70 -24 27 -37 39 -39 39 -8 0 40 24 62 67 60 38 -2 39 -1 39 33 0 29 10 45 70 105 90 92 99 97 130 68 34 -32 33 -1 -2 41 -15 18 -23 35 -18 39 16 15 80 32 96 26 10 -4 17 1 21 14 4 17 13 21 44 21 49 0 79 21 88 61 4 17 37 68 73 114 37 45 89 119 115 162 49 82 149 295 141 302 -7 7 -54 -41 -96 -97 -29 -39 -45 -53 -58 -49 -14 4 -20 -2 -25 -24 -8 -37 -24 -47 -17 -11 4 22 3 25 -9 16 -154 -124 -560 -414 -627 -448 -31 -16 -35 -16 -58 -1 -23 15 -28 15 -49 1 -32 -21 -45 -20 -45 4 0 29 -56 28 -65 -1 -5 -15 -10 -17 -20 -9 -10 8 -14 4 -20 -17 -5 -21 -8 -24 -16 -12 -8 12 -11 11 -20 -4 -10 -16 -12 -16 -29 5 -11 13 -19 17 -20 10 0 -23 -82 -102 -105 -102 -12 0 -63 -7 -114 -16 -90 -15 -94 -15 -219 10 -70 13 -180 30 -245 36 -123 12 -185 29 -277 75 -69 35 -68 33 -42 51 35 24 26 33 -19 18 l-41 -15 -106 98 c-196 181 -413 397 -456 454 -24 31 -62 105 -86 163 -36 90 -45 106 -61 101 -27 -9 -54 36 -39 65 7 13 17 19 27 16 11 -5 13 0 9 22 -11 58 -28 188 -28 218 0 17 9 48 20 70 14 29 25 92 41 239 31 285 53 376 118 500 57 108 112 176 263 325 142 141 169 162 291 235 313 186 418 224 647 234 126 6 146 9 158 26 18 25 19 95 1 95 -8 0 -34 13 -58 30 -24 16 -53 30 -64 30 -11 0 -68 -20 -127 -44z m-1213 -2196 c19 -38 31 -70 25 -70 -16 0 -50 39 -50 58 0 9 -7 30 -15 46 -18 33 -18 36 -5 36 5 0 26 -31 45 -70z m-66 29 c15 -44 14 -46 -14 -19 -28 26 -33 50 -11 50 8 0 19 -14 25 -31z"></path><path d="M2472 3613 c-36 -3 -56 -10 -63 -21 -9 -15 -22 -17 -74 -14 -54 4 -66 1 -84 -17 -31 -31 -27 -71 12 -109 40 -39 93 -61 182 -77 81 -14 168 -64 411 -236 76 -54 169 -119 206 -145 l67 -47 43 16 c24 10 47 17 51 17 4 0 7 -20 7 -45 0 -24 11 -75 25 -112 20 -53 37 -79 79 -118 64 -59 81 -104 65 -172 -8 -40 -7 -50 18 -96 16 -28 52 -76 81 -107 31 -33 52 -63 52 -77 0 -25 19 -30 38 -11 10 10 11 -3 6 -62 -3 -41 -7 -80 -9 -87 -2 -7 0 -15 4 -17 5 -3 11 23 15 57 3 35 15 94 25 132 11 38 18 71 17 73 -2 1 -11 -9 -20 -23 -9 -14 -20 -25 -25 -25 -4 0 -11 46 -15 103 -3 56 -13 158 -22 227 l-16 125 -171 275 c-94 151 -194 299 -221 328 -95 101 -284 208 -434 246 -66 17 -174 25 -250 19z"></path><path d="M1820 2904 c-75 -38 -93 -43 -152 -43 l-68 -1 0 -100 0 -100 68 0 c59 0 79 -5 151 -40 46 -22 85 -39 88 -37 2 2 2 85 1 184 l-3 181 -85 -44z"></path><path d="M2115 2913 c-4 -10 -10 -80 -14 -155 -4 -75 -9 -140 -13 -143 -3 -3 -9 37 -13 90 -11 148 -29 189 -55 125 -7 -17 -26 -42 -43 -56 -16 -13 -27 -27 -25 -30 9 -8 58 37 75 69 l17 32 7 -40 c4 -22 11 -79 14 -126 6 -84 17 -120 31 -106 6 6 21 199 23 305 1 12 6 22 11 22 6 0 10 -43 10 -109 0 -146 21 -160 40 -26 7 50 12 48 25 -10 6 -29 7 -29 21 -11 8 11 14 30 14 43 0 31 18 29 30 -2 8 -21 16 -25 50 -25 22 0 40 5 40 10 0 6 -18 10 -39 10 -33 0 -40 4 -45 25 -9 35 -33 31 -49 -7 l-14 -33 -7 48 c-11 71 -35 57 -37 -21 0 -20 -4 -46 -9 -57 -6 -13 -9 11 -9 72 -1 91 -6 123 -21 123 -4 0 -11 -8 -15 -17z"></path><path d="M2005 2350 c-49 -9 -108 -24 -130 -32 -22 -9 -105 -37 -184 -63 -130 -42 -148 -46 -181 -36 -60 18 -79 14 -99 -20 -16 -26 -19 -53 -19 -181 -1 -83 -7 -186 -13 -227 -19 -117 -17 -372 4 -451 29 -105 60 -165 97 -184 43 -21 59 -20 125 6 55 23 55 23 49 58 -4 19 -12 38 -18 42 -17 12 -54 9 -58 -4 -7 -19 -36 -2 -52 30 -22 42 -39 203 -32 292 4 41 8 113 11 160 17 307 15 293 49 322 17 15 38 27 47 28 8 0 20 5 27 12 6 6 24 12 39 14 15 1 60 15 98 31 129 54 325 90 375 70 44 -19 57 -35 52 -66 -12 -82 -379 -364 -580 -447 -29 -12 -44 -25 -48 -41 -8 -30 10 -72 33 -79 10 -3 32 -12 48 -20 26 -12 49 -13 138 -5 60 6 112 13 118 16 10 7 279 7 344 1 55 -5 185 -57 199 -79 9 -15 6 -22 -15 -41 -35 -31 -186 -112 -224 -122 -17 -4 -35 -11 -41 -15 -10 -8 -85 -38 -199 -78 -27 -10 -92 -28 -143 -41 -82 -20 -93 -26 -99 -48 -19 -78 73 -107 170 -53 30 16 84 37 120 45 37 9 75 20 84 25 10 6 68 29 128 53 123 47 228 103 295 156 54 43 54 44 70 92 32 96 -68 165 -300 208 -71 13 -138 16 -265 15 l-170 -3 40 35 c22 19 60 52 85 73 25 21 70 57 100 79 30 22 62 48 70 58 8 9 22 20 31 24 26 9 117 98 124 120 3 10 12 25 20 31 46 38 -31 228 -93 230 -7 0 -20 7 -28 15 -20 19 -82 18 -199 -5z"></path></g></svg>